<svg height="512" viewBox="0 0 61 61" width="512" xmlns="http://www.w3.org/2000/svg"><g id="013---Baking" fill="none"><g id="Icons" transform="translate(1 1)"><path id="Shape" d="m57.58 56.58c-1.0901999 1.0859134-2.6302498 1.5913903-4.1519152 1.3627463-1.5216655-.2286441-2.8451579-1.1643941-3.5680848-2.5227463 0-.01 0-.01-.01-.01-1.49-2.43-3.02-5.82-5.38-7.49-1.4-1.016 3.738 4-32.96-32.7-1.395-2.781-5.693-4.655-8.25-6.27-1.24627953-.78704338-2.06700924-2.09813572-2.23042488-3.56304025-.16341565-1.46490453.34821916-2.92462718 1.39042488-3.96695975 1.89869804-1.88377804 4.96130196-1.88377804 6.86 0 1.587 1.587 3.554 7.332 6.94 9.09 36.3 36.3 31.913 31.815 32.68 32.94 1.633 2.318 4.92 3.848 7.84 5.6 1.2418654.7905108 2.0588971 2.1009236 2.2221053 3.5639683.1632082 1.4630448-.3449693 2.9212897-1.3821053 3.9660317z" fill="#ffe0b2"/><path id="Shape" d="m57.58 56.58c-1.0901999 1.0859134-2.6302498 1.5913903-4.1519152 1.3627463-1.5216655-.2286441-2.8451579-1.1643941-3.5680848-2.5227463 1.8836789 1.0038439 4.2020818.6593734 5.7125269-.8487726 1.510445-1.5081461 1.8584466-3.8260216.8574731-5.7112274 1.3531378.7280873 2.2833926 2.0519716 2.5097899 3.5717865s-.2776095 3.0573521-1.3597899 4.1482135z" fill="#dfc49c"/><path id="Shape" d="m46.26 45.26c-3.12 3.13-6.293 5.022-7.07 4.25-2.812-2.794-26.368-26.338-29.7-29.7-.563-.568.3-2.42 2.02-4.59 1.3988066-1.7323365 2.9776635-3.3111934 4.71-4.71 2.17-1.72 4.02-2.58 4.59-2.02l29.7 29.7c.77.78-1.12 3.95-4.25 7.07z" fill="#6d4122"/><path id="Shape" d="m44.58 43.58c-3.12 3.13-6.292 5.022-7.07 4.25-10.483-10.416-18.31-18.23-28.02-28.02-.563-.568.3-2.42 2.02-4.59 1.3988066-1.7323365 2.9776635-3.3111934 4.71-4.71 2.17-1.72 4.02-2.58 4.59-2.02l28.02 28.02c.77.78-1.12 3.95-4.25 7.07z" fill="#91562d"/><path id="Shape" d="m27.59 38.09c-25.097 25.173-16.842 16.842-18.56 18.56-1.19326706 1.1950534-2.93344472 1.6627279-4.56502488 1.226855-1.63158015-.4358729-2.90668696-1.7090737-3.34500002-3.34-.43831307-1.6309263.0267578-3.3718016 1.2200249-4.566855 9.9-9.9 12.933-12.907 18.56-18.56 1.8499665-1.8578143 4.8535199-1.8712231 6.72-.03h.01c1.8406365 1.8644631 1.8227339 4.8676137-.04 6.71z" fill="#0377bc"/><path id="Shape" d="m25.59 36.09c-25.097 25.173-16.842 16.842-18.56 18.56-1.46534096 1.4780922-3.7203577 1.8343606-5.57.88-.9500677-1.8470054-.59400709-4.0966611.88-5.56 10.143-10.142 12.612-12.585 18.56-18.56 1.4649562-1.472134 3.715373-1.8242675 5.56-.87.9623633 1.8399709.6092227 4.0927642-.87 5.55z" fill="#02a9f4"/><path id="Shape" d="m17.76 34.56-12.12 12.11c-1.49 1.489-.64 4.13.96 5.73 1.85 1.85 4.41 2.28 5.73.96l12.12-12.11c1.481-1.484.562-4.25-.97-5.73-1.68-1.627-4.287-2.406-5.72-.96z" fill="#9e9e9e"/><path id="Shape" d="m24.45 41.25-12.12 12.11c-1.728 1.728-5.059.352-6.53-1.95 1.68 1.11 3.61 1.21 4.7.12l12.12-12.11c1.18-1.18.86-3.19-.11-4.69 2.737 1.798 3.378 5.082 1.94 6.52z" fill="#707070"/></g><path id="Shape" d="m3.729 10.8c2.407 1.527 5.989 3.092 7.567 5.373-1.931 2.585-2.455 4.388-1.513 5.346l10.8 10.8c-3.05 3.059.5-.5-17.879 17.877-1.5316561 1.4290991-2.16154994 3.5800214-1.64275868 5.6095904.51879126 2.0295689 2.10359934 3.614377 4.1331683 4.1331683 2.02956895.5187912 4.18049133-.1111026 5.60959038-1.6427587l17.881-17.877 10.8 10.8c1.295 1.278 3.9-.418 5.35-1.512 2.276 1.581 3.841 5.158 5.367 7.565 1.2008073 1.8950821 3.3797765 2.9363234 5.6085956 2.6801212s4.1146969-1.7646967 4.8541877-3.8828155c.7394908-2.1181189.2022722-4.4725799-1.3827833-6.0603057-1.719-1.722-6.594-3.322-8.575-6.175 1.447-1.922 2.661-4.186 1.508-5.353l-7.3-7.3c2.0372935-.7841215 4.0177172-1.7086757 5.927-2.767 2.0926876-1.1682697 4.0324793-2.5914554 5.775-4.237 8.827-8.81 2.716-23.961-9.772-23.961-3.7634139-.00671673-7.3727723 1.49400131-10.022 4.167-3.0895587 3.39346836-5.4764757 7.3652058-7.023 11.686l-7.289-7.292c-.951-.934-2.752-.413-5.34 1.52-2.281-1.579-3.849-5.165-5.371-7.57-1.2854302-2.02626102-3.67806396-3.06184471-6.03514513-2.61214152-2.35708117.4497032-4.20037247 2.29345127-4.64949163 4.65064379-.44911917 2.35719251.58705731 4.74956958 2.61363676 6.03449773zm21.712 21.125c1.4920944.0367729 2.8181788.9606304 3.3696419 2.3475645s.2218187 2.969131-.8376419 4.0204355c-.1.1.2-.191-.884.894-.6266902-2.6129021-2.6730413-4.6491936-5.289-5.263 1.154-1.157.793-.783.905-.9.7222296-.7267421 1.7117274-1.1242048 2.736-1.099zm30.427-25.379c.519992 1.41782777.5064856 2.97639689-.038 4.385-2.885 9.477-16.954 16.512-25.76 21.461-.07-.1-.82.782 25.798-25.846zm-1.417-1.411-25.806 25.816c-.06-.042-.117-.087-.179-.127 4.289-7.274 8.6-15.382 14.011-20.786 4.163-4.156 9.296-6.17 11.974-4.903zm-41.828 48.518c-1.4 1.4-5.056-.457-5.686-3.372-.19716773-.6611432-.04416178-1.3771809.406-1.9 13.515-13.564 11.868-11.86 12.124-12.115.3347308-.3256807.7894945-.4980275 1.256-.476 2.764-.006 5.6 3.772 4.02 5.75zm-8.536 3.26c-1.45469957-1.474403-1.44127852-3.8481404.03-5.306l.875-.874c.64292285 2.6004085 2.67018367 4.6326711 5.269 5.282l-.868.868c-1.45809013 1.4707298-3.83137268 1.4841483-5.306.03zm53.783-5.488c1.046169 1.0450625 1.401341 2.5969659.9138522 3.9930247-.4874887 1.3960588-1.731485 2.3895497-3.2007844 2.5562378-1.4692993.166688-2.9042347-.5228855-3.6920678-1.7742625-1.457-2.3-2.991-5.8-5.461-7.793 1.0560373-.9268724 2.0504823-1.9216515 2.977-2.978 2.467 3.062 7.127 4.66 8.463 5.996zm-7.189-11.65c-.063.675-1.277 2.936-4.13 5.779s-5.1 4.063-5.776 4.126l-10.755-10.755c.5786213-.827618.9277869-1.7936888 1.012-2.8 3.61-1.255 7.824-2.629 11.848-4.151zm4.519-17.009c-5.047 5.083-14.658 7.984-23.537 11.024 9.452-5.312 24.469-12.959 26.411-23.676 1.5843529 4.4173553.4632672 9.3526289-2.874 12.652zm-20.886-11.6c1.0839541-1.94220378 2.4017706-3.74429422 3.924-5.366 3.3001799-3.33376084 8.2332195-4.45304485 12.649-2.87-10.516 1.884-17.918 16.319-23.373 25.57l3.6-10.243c.8486513-2.4575683 1.9201065-4.8324432 3.201-7.095zm-5.276 6.971-4.151 11.807c-1.0155566.0839271-1.9900455.4385693-2.822 1.027l-10.741-10.742c.3940339-1.2610439 1.06624-2.4174982 1.967-3.384 1.351624-1.6737884 2.8768057-3.1996406 4.55-4.552.9681763-.9010331 2.1258333-1.5738273 3.388-1.969zm-24.908-15.007c.82840219-.82652561 1.98753592-1.23178091 3.15046854-1.10146399 1.16293261.13031692 2.20361789.78208146 2.82853146 1.77146399 1.458 2.3 3 5.811 5.466 7.8-1.0602542.9206214-2.0543786 1.9147458-2.975 2.975-1.99-2.469-5.5-4.009-7.8-5.464-.98945634-.62533766-1.64120477-1.66635549-1.77151081-2.82958005-.13030605-1.16322455.27494575-2.32264903 1.10151081-3.15141995z" fill="#000"/></g></svg>