<svg height="512" viewBox="0 0 512 512" width="512" xmlns="http://www.w3.org/2000/svg"><g><g><path d="m48 392.8v-288.8a40 40 0 0 1 40-40h336a40 40 0 0 1 40 40v288.74" fill="#a0815c"/><path d="m80 360v-244a19.994 19.994 0 0 1 20-20h312a19.994 19.994 0 0 1 20 20v244" fill="#ebe5dd"/><path d="m187.46 368.49-42.12 42.11-1.34-1.34v30.74h-128v-136a40 40 0 0 1 40-40h48a40 40 0 0 1 40 40v40.05l9.51-9.51a20.008 20.008 0 0 1 28.29 0l5.66 5.66a20.008 20.008 0 0 1 0 28.29z" fill="#cca400"/><path d="m24 440h112v24h-112z" fill="#ffeb99"/><path d="m324.857 368.49 42.12 42.11 1.341-1.34v30.74h128v-136a40 40 0 0 0 -40-40h-48a40 40 0 0 0 -40 40v40.05l-9.51-9.51a20.008 20.008 0 0 0 -28.29 0l-5.661 5.66a20.01 20.01 0 0 0 0 28.29z" fill="#cca400"/><path d="m376.318 440h112v24h-112z" fill="#ffeb99" transform="matrix(-1 0 0 -1 864.635 904)"/><rect fill="#a0815c" height="96" rx="16" width="32" x="168" y="120"/><rect fill="#5f4d37" height="64" rx="16" width="32" x="200" y="136"/><rect fill="#5f4d37" height="64" rx="16" width="32" x="136" y="136"/><g fill="#a0815c"><path d="m232 152h12a20 20 0 0 1 20 20v12a0 0 0 0 1 0 0h-32a0 0 0 0 1 0 0v-32a0 0 0 0 1 0 0z"/><path d="m104 152h12a20 20 0 0 1 20 20v12a0 0 0 0 1 0 0h-32a0 0 0 0 1 0 0v-32a0 0 0 0 1 0 0z" transform="matrix(-1 0 0 -1 240 336)"/><rect height="96" rx="16" width="32" x="312" y="176"/></g><rect fill="#5f4d37" height="64" rx="16" width="32" x="344" y="192"/><rect fill="#5f4d37" height="64" rx="16" width="32" x="280" y="192"/><path d="m376 208h12a20 20 0 0 1 20 20v12a0 0 0 0 1 0 0h-32a0 0 0 0 1 0 0v-32a0 0 0 0 1 0 0z" fill="#a0815c"/><path d="m248 208h12a20 20 0 0 1 20 20v12a0 0 0 0 1 0 0h-32a0 0 0 0 1 0 0v-32a0 0 0 0 1 0 0z" fill="#a0815c" transform="matrix(-1 0 0 -1 528 448)"/></g><g><path d="m472 258.64v-154.64a48.051 48.051 0 0 0 -48-48h-336a48.051 48.051 0 0 0 -48 48v154.75a48.086 48.086 0 0 0 -32 45.25v136a8 8 0 0 0 8 8v16a8 8 0 0 0 8 8h112a8 8 0 0 0 8-8v-16a8 8 0 0 0 8-8v-24.75l15.26-15.25h177.8l15.26 15.25v24.75a8 8 0 0 0 8 8v16a8 8 0 0 0 8 8h112a8 8 0 0 0 8-8v-16a8 8 0 0 0 8-8v-136a48.079 48.079 0 0 0 -32.32-45.36zm-416-154.64a32.036 32.036 0 0 1 32-32h336a32.036 32.036 0 0 1 32 32v152h-16v-140a28.031 28.031 0 0 0 -28-28h-312a28.031 28.031 0 0 0 -28 28v140h-16zm48 152h-16v-140a12.01 12.01 0 0 1 12-12h312a12.01 12.01 0 0 1 12 12v140h-15.68a48.051 48.051 0 0 0 -48 48v21.46a28.066 28.066 0 0 0 -35.46 3.42l-5.66 5.66a27.882 27.882 0 0 0 -8.08 17.46h-109.92a27.882 27.882 0 0 0 -8.08-17.46l-5.66-5.66a28.052 28.052 0 0 0 -35.46-3.41v-21.47a48.051 48.051 0 0 0 -48-48zm24 200h-96v-8h96zm30.33-69.7-.09.09-14.9 14.9a7.871 7.871 0 0 0 -2.4.58 8 8 0 0 0 -4.94 7.39v22.74h-112v-128a32.036 32.036 0 0 1 32-32h48a32.036 32.036 0 0 1 32 32v40.05a8 8 0 0 0 13.66 5.66l9.5-9.51a12.023 12.023 0 0 1 16.98 0l5.66 5.66a12.023 12.023 0 0 1 0 16.98zm24.93-2.3 9.86-9.85v-.01a27.6 27.6 0 0 0 4.63-6.14h116.81a27.954 27.954 0 0 0 4.64 6.14v.01l9.86 9.85zm297.06 72h-96v-8h96zm8-24h-112v-22.74a8 8 0 0 0 -4.94-7.39 7.871 7.871 0 0 0 -2.4-.58l-14.88-14.87a.927.927 0 0 0 -.14-.14l-23.44-23.44a12.032 12.032 0 0 1 -.01-16.98l5.66-5.66a12.023 12.023 0 0 1 16.98 0l9.51 9.51a8 8 0 0 0 13.66-5.66v-40.05a32.036 32.036 0 0 1 32-32h48a32.042 32.042 0 0 1 32 32z"/><path d="m244 144h-5.38a23.967 23.967 0 0 0 -31.47-14.3 23.989 23.989 0 0 0 -46.3 0 23.967 23.967 0 0 0 -31.47 14.3h-25.38a8 8 0 0 0 -8 8v12a28.031 28.031 0 0 0 28 28h5.38a23.967 23.967 0 0 0 31.47 14.3 23.989 23.989 0 0 0 46.3 0 23.967 23.967 0 0 0 31.47-14.3h25.38a8 8 0 0 0 8-8v-12a28.031 28.031 0 0 0 -28-28zm-116 32h-4a12.01 12.01 0 0 1 -12-12v-4h16zm32 8a8 8 0 0 1 -16 0v-32a8 8 0 0 1 16 0zm32 16a8 8 0 0 1 -16 0v-64a8 8 0 0 1 16 0zm32-16a8 8 0 0 1 -16 0v-32a8 8 0 0 1 16 0zm32-8h-16v-16h4a12.01 12.01 0 0 1 12 12z"/><path d="m388 200h-5.38a23.967 23.967 0 0 0 -31.47-14.3 23.989 23.989 0 0 0 -46.3 0 23.967 23.967 0 0 0 -31.47 14.3h-25.38a8 8 0 0 0 -8 8v12a28.031 28.031 0 0 0 28 28h5.38a23.967 23.967 0 0 0 31.47 14.3 23.989 23.989 0 0 0 46.3 0 23.967 23.967 0 0 0 31.47-14.3h25.38a8 8 0 0 0 8-8v-12a28.031 28.031 0 0 0 -28-28zm-116 32h-4a12.01 12.01 0 0 1 -12-12v-4h16zm32 8a8 8 0 0 1 -16 0v-32a8 8 0 0 1 16 0zm32 16a8 8 0 0 1 -16 0v-64a8 8 0 0 1 16 0zm32-16a8 8 0 0 1 -16 0v-32a8 8 0 0 1 16 0zm32-8h-16v-16h4a12.01 12.01 0 0 1 12 12z"/></g></g></svg>