<svg id="Capa_1" enable-background="new 0 0 512.199 512.199" height="512" viewBox="0 0 512.199 512.199" width="512" xmlns="http://www.w3.org/2000/svg"><g><g><path d="m421.199 76.1h30v60h-30z" fill="#ffe6b3"/></g><path d="m436.199 76.1h15v60h-15z" fill="#ffca80"/><path d="m271.199 60.1h-30c0-33.091 26.909-60 60-60h90l15 30h-105c-16.538 0-30 13.462-30 30z" fill="#ffe6b3"/><path d="m512.199 121.1v60l-151 45v-105z" fill="#ff8066"/><path d="m391.199.1v91h90v-91h-90z" fill="#ff8066"/><g><path d="m256.199 211.1c-24.814 0-45-20.186-45-45 0-19.175 22.837-54.302 32.651-68.525l12.349-17.871 12.349 17.871c9.814 14.224 32.651 49.351 32.651 68.525 0 24.814-20.185 45-45 45z" fill="#fc6"/></g><path d="m436.199.1h45v91h-45z" fill="#e63950"/><path d="m512.199 121.1v60l-76 22.5v-82.5z" fill="#e63950"/><g><path d="m376.199 181.1c-41.4 0-75 33.6-75 75v256h211v-331z" fill="#fff7cc"/></g><g><g><path d="m321.299 456.499c-18.517 15.298-41.289 22.266-65.099 24.6-19.799 1.8-40.8.899-61.199 0-41.7-1.8-81-3.6-107.1 17.699l-11.7 9.6-76.201-92.698 11.699-9.6c8.101-6.601 16.8-18.6 26.1-31.5 24.6-34.801 58.5-82.202 121.501-75.901 44.7 6.301 76.8 15.3 96.899 27.299 6.301 3.9 11.4 7.8 15.3 12.301 4.499 5.099 6 12.001 3.9 18.3-2.767 8.697-11.453 13.801-19.2 13.801-2.701.3-5.7.3-8.401 0l-88.198-8.701-3.001 30c68.298 6.267 92.441 10.135 99.6 8.701 15.601-.901 30.901-6.901 42.599-17.1l104.7-88.801c8.701-7.2 21.301-6.599 28.801 1.8 7.5 8.401 30 33.599-111 160.2z" fill="#ffd5cc"/></g></g><g fill="#fa9"><path d="m432.299 296.299c-7.5-8.399-20.099-9-28.801-1.8l-104.7 88.801c-11.699 10.199-26.999 16.199-42.599 17.1-4.289.859-14.678-.186-37-2.508v84.102c12.507.294 24.975.2 37-.894 23.811-2.334 46.582-9.302 65.099-24.6 141.001-126.602 118.501-151.801 111.001-160.201z"/><path d="m219.199 367.578 28.599 2.821c2.701.3 5.7.3 8.401 0 7.748 0 16.433-5.104 19.2-13.801 2.1-6.299.599-13.2-3.9-18.299-3.9-4.5-9-8.401-15.3-12.301-9.582-5.72-21.898-10.757-37-15.146z"/></g><path d="m436.199 181.1h76v331h-76z" fill="#ffe6b3"/></g></svg>