<svg id="Capa_1" enable-background="new 0 0 512.159 512.159" height="512" viewBox="0 0 512.159 512.159" width="512" xmlns="http://www.w3.org/2000/svg"><g><path d="m451.159 120.08v-30h30v-90c-34.424 0-139.214 0-180 0-33.084 0-60 26.914-60 60l30-.004c0-16.54 13.458-29.996 30-29.996h90v60h30v30h-60v61.509c-34.192 6.968-60 37.271-60 73.491v100.47c-1.024.833-2.05 1.67-3.086 2.519-5.663 3.715-11.725 6.639-18.052 8.749.171-.829.319-1.666.421-2.518 1.31-11-2.609-27.035-28.718-40.95-19.922-10.619-50.849-18.929-91.922-24.701l-.629-.075c-62.691-6.128-96.69 41.279-121.518 75.892-9.232 12.871-17.953 25.028-26.068 31.699l-11.587 9.523 76.2 92.701 11.587-9.525c26.168-21.508 65.473-19.688 107.085-17.765 36.927 1.71 74.877 3.452 106.287-11.646v42.627h211c0-14.253 0-385.583 0-392zm-30-90h30v30h-30zm-224.9 421.051c-40.313-1.865-81.845-3.786-115.197 15.929l-39.658-48.246c6.995-7.856 13.683-17.181 20.628-26.864 23.914-33.339 48.635-67.817 93.92-63.549 44.258 6.243 67.501 14.41 79.211 20.168 12.598 6.194 15.421 11.206 15.489 12.182-.393 2.754-9.827 9.005-19.121 8.101l-72.08-7.042-2.917 29.857 88.265 8.624c3.586.35 7.157.523 10.714.523 24.964 0 48.958-8.56 68.496-24.62.102-.074 50.538-43.016 80.962-55.298-16.789 31.314-77.149 89.293-103.564 113.139-25.425 20.784-64.155 18.991-105.148 17.096zm285.9 30.949h-151v-34.628c27.863-25.889 72.671-69.932 93.761-101.626 6.033-9.065 22.057-33.147 7.401-49.472-5.131-5.716-15.141-11.235-33.688-5.067-20.974 6.976-49.726 27.438-67.475 40.747v-76.954c0-24.813 20.187-45 45-45h106v272zm-91-302v-30h91v30z"/><path d="m256.159 210.08c24.813 0 45-20.187 45-45 0-6.178-1.765-17.434-17.025-43.74-7.708-13.288-15.313-24.322-15.633-24.785l-12.342-17.868-12.342 17.868c-.32.463-7.925 11.497-15.633 24.785-15.26 26.306-17.025 37.562-17.025 43.74 0 24.813 20.187 45 45 45zm0-77.194c8.635 14.55 14.872 27.615 15 32.206-.006 8.266-6.733 14.988-15 14.988-8.271 0-15-6.729-15-14.982.122-4.586 6.362-17.657 15-32.212z"/></g></svg>