<svg id="Layer_1" enable-background="new 0 0 512 512" height="512" viewBox="0 0 512 512" width="512" xmlns="http://www.w3.org/2000/svg"><g><g><path d="m483.939 274.643h-318.005c-5.587 0-10.717-3.086-13.335-8.022-2.618-4.935-2.296-10.914.837-15.539l159.003-234.731c2.809-4.146 7.491-6.629 12.498-6.629 5.008 0 9.689 2.483 12.498 6.629l159.002 234.731c3.133 4.626 3.455 10.604.837 15.539-2.618 4.936-7.748 8.022-13.335 8.022z" fill="#00cb75"/></g><g><path d="m345.511 273.837h-318.005c-5.587 0-10.717-3.086-13.335-8.022-2.618-4.935-2.296-10.914.837-15.539l159.002-234.731c2.809-4.146 7.49-6.629 12.498-6.629 5.007 0 9.689 2.483 12.498 6.629l159.003 234.731c3.133 4.626 3.455 10.604.837 15.539-2.618 4.937-7.748 8.022-13.335 8.022z" fill="#ff435b"/></g><g><path d="m212.003 409.493h-56.621c-40.254 0-78.493-15.499-107.675-43.64-29.084-28.047-46.022-65.577-47.694-105.676-.171-4.109 1.341-8.11 4.189-11.078s6.781-4.646 10.894-4.646h337.194c4.113 0 8.047 1.678 10.894 4.646s4.36 6.969 4.189 11.078c-1.672 40.099-18.61 77.629-47.693 105.676-29.183 28.142-67.423 43.64-107.677 43.64z" fill="#a24603"/></g><g><path d="m356.618 409.493h-56.622c-40.254 0-78.493-15.499-107.675-43.64-29.084-28.048-46.022-65.577-47.693-105.676-.171-4.109 1.341-8.11 4.189-11.078 2.847-2.968 6.781-4.646 10.894-4.646h337.195c4.113 0 8.047 1.678 10.894 4.646s4.359 6.969 4.189 11.078c-1.672 40.099-18.61 77.629-47.693 105.676-29.185 28.142-67.424 43.64-107.678 43.64z" fill="#6f2e01"/></g><g><path d="m415.003 364.459h-318.006c-5.587 0-10.717-3.086-13.335-8.022-2.618-4.935-2.296-10.914.837-15.539l159.003-234.73c2.809-4.146 7.49-6.629 12.498-6.629 5.007 0 9.689 2.483 12.498 6.629l159.002 234.73c3.133 4.626 3.455 10.604.837 15.539-2.617 4.936-7.747 8.022-13.334 8.022z" fill="#fdbf00"/></g><path d="m427.5 340.898-159.002-234.73c-2.809-4.146-7.491-6.629-12.498-6.629v264.921h159.003c5.587 0 10.717-3.086 13.335-8.022s2.295-10.915-.838-15.54z" fill="#ff8856"/><g><path d="m284.31 503.084h-56.622c-40.254 0-78.493-15.499-107.675-43.641-29.084-28.048-46.022-65.577-47.693-105.676-.171-4.109 1.341-8.11 4.189-11.078 2.847-2.968 6.781-4.646 10.894-4.646h337.195c4.113 0 8.047 1.678 10.894 4.646s4.36 6.969 4.189 11.078c-1.672 40.099-18.61 77.628-47.694 105.676-29.183 28.142-67.423 43.641-107.677 43.641z" fill="#b34f03"/></g><path d="m435.492 342.689c-2.847-2.968-6.781-4.646-10.894-4.646h-168.598v165.041h28.31c40.254 0 78.493-15.499 107.675-43.641 29.085-28.047 46.023-65.577 47.694-105.676.172-4.109-1.34-8.11-4.187-11.078z" fill="#a24603"/></g></svg>