<svg height="512" viewBox="0 0 512 512" width="512" xmlns="http://www.w3.org/2000/svg"><g><g><path d="m77.44 328 1.792 44.8a20 20 0 0 0 19.984 19.2h88.664a20 20 0 0 0 19.98-19.1l2.02-44.9z" fill="#e0e0e2"/><path d="m76.48 304-4.48-112h144l-5.04 112z" fill="#e0e0e2"/><path d="m56 160h176v32h-176z" fill="#aa6100"/><path d="m216 160h-144l8-48h127z" fill="#ee8700"/><path d="m301.44 328 1.792 44.8a20 20 0 0 0 19.984 19.2h88.664a20 20 0 0 0 19.98-19.1l2.02-44.9z" fill="#e0e0e2"/><path d="m300.48 304-4.48-112h144l-5.04 112z" fill="#e0e0e2"/><path d="m280 160h176v32h-176z" fill="#aa6100"/><path d="m440 160h-144l8-48h127z" fill="#ee8700"/><path d="m16 304h480v24h-480z" fill="#aa6100"/></g><path d="m496 296h-52.67l4.32-96h8.35a8 8 0 0 0 8-8v-32a8 8 0 0 0 -8-8h-9.36l-7.78-41.47a8 8 0 0 0 -7.86-6.53h-127a8 8 0 0 0 -7.89 6.68l-6.89 41.32h-9.22a8 8 0 0 0 -8 8v32a8 8 0 0 0 8 8h8.31l3.84 96h-72.82l4.32-96h8.35a8 8 0 0 0 8-8v-32a8 8 0 0 0 -8-8h-9.36l-7.78-41.47a8 8 0 0 0 -7.86-6.53h-127a8 8 0 0 0 -7.89 6.68l-6.89 41.32h-9.22a8 8 0 0 0 -8 8v32a8 8 0 0 0 8 8h8.31l3.84 96h-52.15a8 8 0 0 0 -8 8v24a8 8 0 0 0 8 8h53.75l1.49 37.12a27.923 27.923 0 0 0 27.98 26.88h88.66a27.95 27.95 0 0 0 27.97-26.74l1.68-37.26h76.22l1.49 37.12a27.923 27.923 0 0 0 27.98 26.88h88.66a27.95 27.95 0 0 0 27.97-26.74l1.68-37.26h54.47a8 8 0 0 0 8-8v-24a8 8 0 0 0 -8-8zm-185.22-176h113.58l6 32h-124.92zm-22.78 64v-16h160v16zm143.63 16-4.32 96h-119.14l-3.84-96zm-344.85-80h113.58l6 32h-124.92zm-22.78 64v-16h160v16zm143.63 16-4.32 96h-119.14l-3.84-96zm-7.76 172.54a11.981 11.981 0 0 1 -11.99 11.46h-88.66a11.958 11.958 0 0 1 -11.99-11.52l-1.46-36.48h115.74zm224 0a11.981 11.981 0 0 1 -11.99 11.46h-88.66a11.958 11.958 0 0 1 -11.99-11.52l-1.46-36.48h115.74zm64.13-52.54h-464v-8h464z"/></g></svg>