<?xml version="1.0" encoding="UTF-8" standalone="no"?>
<svg
   xmlns:dc="http://purl.org/dc/elements/1.1/"
   xmlns:cc="http://creativecommons.org/ns#"
   xmlns:rdf="http://www.w3.org/1999/02/22-rdf-syntax-ns#"
   xmlns:svg="http://www.w3.org/2000/svg"
   xmlns="http://www.w3.org/2000/svg"
   xmlns:sodipodi="http://sodipodi.sourceforge.net/DTD/sodipodi-0.dtd"
   xmlns:inkscape="http://www.inkscape.org/namespaces/inkscape"
   inkscape:version="1.0 (4035a4fb49, 2020-05-01)"
   sodipodi:docname="bananabread.svg"
   xml:space="preserve"
   style="enable-background:new 0 0 512 512;"
   viewBox="0 0 512 512"
   y="0px"
   x="0px"
   id="Capa_1"
   version="1.1"><metadata
   id="metadata55"><rdf:RDF><cc:Work
       rdf:about=""><dc:format>image/svg+xml</dc:format><dc:type
         rdf:resource="http://purl.org/dc/dcmitype/StillImage" /><dc:title></dc:title></cc:Work></rdf:RDF></metadata><defs
   id="defs53" /><sodipodi:namedview
   inkscape:current-layer="Capa_1"
   inkscape:window-maximized="1"
   inkscape:window-y="-11"
   inkscape:window-x="2869"
   inkscape:cy="186.15923"
   inkscape:cx="429.00269"
   inkscape:zoom="0.90379967"
   showgrid="false"
   id="namedview51"
   inkscape:window-height="1541"
   inkscape:window-width="2880"
   inkscape:pageshadow="2"
   inkscape:pageopacity="0"
   guidetolerance="10"
   gridtolerance="10"
   objecttolerance="10"
   borderopacity="1"
   bordercolor="#666666"
   pagecolor="#ffffff" />








<g
   transform="matrix(0.58940708,0,0,0.64699299,-273.39437,15.131882)"
   id="g340"><path
     style="fill:#fea832"
     d="m 852.25,56 h -123 l 103,400 h 126 c 22.09,0 40,-17.91 40,-40 V 235.15 c 25.02,-18.9 40,-42.95 40,-69.15 0,-60.75 -86.59,-110 -186,-110 z"
     id="path2" /><path
     style="fill:#ffc478"
     d="m 912.25,166 c 0,26.2 -14.98,50.25 -40,69.15 V 416 c 0,22.09 -17.91,40 -40,40 h -206 c -22.09,0 -40,-17.91 -40,-40 V 235.15 c -25.02,-18.9 -40,-42.95 -40,-69.15 0,-60.75 83.59,-110 183,-110 99.41,0 183,49.25 183,110 z"
     id="path4" /><path
     d="m 736.07,198.22 c 3.91,-3.91 3.91,-10.24 0,-14.14 -3.9,-3.91 -10.24,-3.91 -14.14,0 -3.91,3.9 -3.91,10.23 0,14.14 3.9,3.9 10.24,3.9 14.14,0 z"
     id="path6" /><path
     d="m 721.93,353.78 c -3.91,3.91 -3.91,10.24 0,14.14 3.9,3.91 10.24,3.91 14.14,0 3.91,-3.9 3.91,-10.23 0,-14.14 -3.9,-3.9 -10.24,-3.9 -14.14,0 z"
     id="path8" /><path
     d="m 978,156 c -5.522,0 -10,4.478 -10,10 0,32.157 -12.895,62.883 -37.289,88.854 -1.741,1.854 -2.711,4.303 -2.711,6.847 V 416 c 0,5.522 4.478,10 10,10 5.522,0 10,-4.478 10,-10 V 265.597 c 26.186,-29.13 40,-63.484 40,-99.597 0,-5.522 -4.478,-10 -10,-10 z"
     id="path10" /><path
     d="m 707.791,226.501 c 3.905,-3.905 3.905,-10.237 0,-14.143 -3.906,-3.904 -10.236,-3.904 -14.143,0 l -42.43,42.431 c -3.905,3.905 -3.905,10.237 0,14.143 3.907,3.905 10.236,3.904 14.143,0 z"
     id="path12" /><path
     d="m 792.639,283.068 -42.43,42.431 c -3.905,3.905 -3.905,10.237 0,14.143 3.907,3.905 10.236,3.904 14.143,0 l 42.43,-42.431 c 3.905,-3.905 3.905,-10.237 0,-14.143 -3.907,-3.904 -10.237,-3.904 -14.143,0 z"
     id="path14" /><path
     d="m 792.642,212.358 c -3.906,-3.904 -10.236,-3.904 -14.143,0 L 665.358,325.499 c -3.905,3.905 -3.905,10.237 0,14.143 3.907,3.905 10.236,3.904 14.143,0 L 792.642,226.501 c 3.905,-3.905 3.905,-10.237 0,-14.143 z"
     id="path16" /><path
     d="M 987.323,79.584 C 950.253,57.927 902.193,46 852,46 H 719 c -0.75,0 -1.479,0.089 -2.182,0.246 C 616.052,50.168 536,102.376 536,166 c 0,26.966 14.162,53.092 40,74.022 V 416 c 0,27.57 22.43,50 50,50 h 206 126 c 27.57,0 50,-22.43 50,-50 V 240.022 c 25.838,-20.931 40,-47.057 40,-74.022 0,-32.867 -21.549,-63.557 -60.677,-86.416 z M 862,235.15 V 416 c 0,16.542 -13.458,30 -30,30 H 626 c -16.542,0 -30,-13.458 -30,-30 V 235.15 c 0,-3.136 -1.471,-6.089 -3.973,-7.979 C 575.592,214.755 556,194.064 556,166 556,111.794 635.225,66 729,66 c 93.775,0 173,45.794 173,100 0,28.064 -19.592,48.755 -36.027,61.171 -2.502,1.891 -3.973,4.844 -3.973,7.979 z m 129.973,-7.979 C 989.471,229.062 988,232.015 988,235.15 V 416 c 0,16.542 -13.458,30 -30,30 H 871.973 C 878.265,437.637 882,427.248 882,416 V 240.022 C 907.838,219.091 922,192.965 922,166 922,124.306 887.616,87.516 835.559,66 H 852 c 46.025,0 91.672,11.245 125.234,30.854 32.737,19.125 50.766,43.681 50.766,69.146 0,28.064 -19.592,48.755 -36.027,61.171 z"
     id="path18" /></g>
<g
   id="g20">
</g>
<g
   id="g22">
</g>
<g
   id="g24">
</g>
<g
   id="g26">
</g>
<g
   id="g28">
</g>
<g
   id="g30">
</g>
<g
   id="g32">
</g>
<g
   id="g34">
</g>
<g
   id="g36">
</g>
<g
   id="g38">
</g>
<g
   id="g40">
</g>
<g
   id="g42">
</g>
<g
   id="g44">
</g>
<g
   id="g46">
</g>
<g
   id="g48">
</g>
<g
   transform="matrix(0.68488971,0,0,0.74283917,150.16433,103.47963)"
   id="g278"><path
     d="M 422,61.068 V 7.5 H 392 L 371.097,100.391 437.225,101 C 427.498,89.94 422,75.797 422,61.068 Z"
     fill="#ffba48"
     id="path258" /><path
     d="m 392,7.5 h -30 v 92.231 l 39.097,0.659 C 395.154,88.18 392,74.754 392,61.068 Z"
     fill="#ffd185"
     id="path260" /><path
     d="M 437.225,101 C 430.991,93.93 424.05,87.145 416.79,81.121 409.967,75.459 401.282,73.342 393.059,74.641 V 219.5 L 197,504.5 c 157.226,-0.443 285,-128.123 285,-285 0,-45.348 -16.915,-86.819 -44.775,-118.5 z"
     fill="#ff9a42"
     id="path262" /><path
     d="m 362,99.731 c -18.829,25.046 -30,56.128 -30,89.769 v 30 c 0,74.31 -60.525,134.79 -135,135 -55.857,0.157 -107.988,16.385 -152,44.267 V 459.5 l 332,-45 45,-269.884 z"
     fill="#ffd185"
     id="path264" /><path
     d="M 414.696,120.812 C 403.114,107.64 395.67,91.602 393.06,74.642 c -5.98,0.945 -11.716,3.695 -16.309,8.221 -5.323,5.245 -10.253,10.887 -14.75,16.869 9.415,12.523 15,28.064 15,44.884 V 219.5 c 0,98.973 -80.69,179.72 -179.873,180 C 141.404,399.657 87.88,418.999 45,454.2 v 6.033 c 44.012,27.882 96.143,44.109 152,44.267 140.676,-0.443 255,-128.123 255,-285 0,-36.286 -13.248,-71.335 -37.304,-98.688 z"
     fill="#ffba48"
     id="path266" /><path
     d="M 60,395.75 H 45 c -8.284,0 -15,6.716 -15,15 v 37.5 c 0,8.284 6.716,15 15,15 h 15 c 8.284,0 15,-6.716 15,-15 v -37.5 c 0,-8.284 -6.716,-15 -15,-15 z"
     fill="#4f4f4f"
     id="path268" /><circle
     cx="452"
     cy="219.5"
     r="7.5"
     id="circle270" /><circle
     cx="197"
     cy="474.5"
     r="7.5"
     id="circle272" /><circle
     cx="167"
     cy="444.5"
     r="7.5"
     id="circle274" /><path
     d="M 442.856,96.048 C 434.243,86.254 429.5,73.831 429.5,61.069 V 7.5 C 429.5,3.358 426.143,0 422,0 h -60 c -4.143,0 -7.5,3.358 -7.5,7.5 v 89.76 c -19.637,26.989 -30,58.824 -30,92.24 v 30 c 0,70.106 -57.206,127.302 -127.521,127.5 -52.595,0.148 -104.119,14.411 -149.158,41.25 H 45 c -12.406,0 -22.5,10.093 -22.5,22.5 v 37.5 c 0,12.407 10.094,22.5 22.5,22.5 h 2.821 C 92.86,497.589 144.384,511.852 197.022,512 358.295,511.546 489.5,380.331 489.5,219.5 489.5,174.093 472.935,130.25 442.856,96.048 Z M 37.5,448.25 v -37.5 c 0,-4.136 3.364,-7.5 7.5,-7.5 h 15 c 4.136,0 7.5,3.364 7.5,7.5 v 37.5 c 0,4.136 -3.364,7.5 -7.5,7.5 H 45 c -4.136,0 -7.5,-3.364 -7.5,-7.5 z M 197.021,497 c -43.489,-0.122 -86.203,-10.416 -124.746,-29.908 6.15,-4.02 10.224,-10.962 10.224,-18.842 V 437.472 C 117.364,417.638 156.909,407.113 197.147,407 300.454,406.708 384.5,322.596 384.5,219.5 c 0,-4.142 -3.357,-7.5 -7.5,-7.5 -4.143,0 -7.5,3.358 -7.5,7.5 0,94.848 -77.336,172.231 -172.395,172.5 -39.996,0.113 -79.349,9.893 -114.605,28.383 v -9.633 c 0,-7.88 -4.075,-14.821 -10.224,-18.841 C 110.819,372.417 153.533,362.123 197.021,362 275.584,361.779 339.5,297.854 339.5,219.5 v -30 c 0,-27.307 7.659,-53.447 22.238,-76.243 5.1,9.616 7.762,20.285 7.762,31.359 V 189.5 c 0,4.142 3.357,7.5 7.5,7.5 4.143,0 7.5,-3.358 7.5,-7.5 v -44.884 c 0,-17.09 -5.185,-33.386 -15,-47.304 V 15 h 45 v 46.068 c 0,16.411 6.07,32.351 17.093,44.885 27.669,31.463 42.907,71.788 42.907,113.547 0,152.583 -124.495,277.069 -277.479,277.5 z"
     id="path276" /></g></svg>
