<svg id="Capa_1" enable-background="new 0 0 512 512" height="512" viewBox="0 0 512 512" width="512" xmlns="http://www.w3.org/2000/svg"><g><path d="m207.015 69h30v67.78h-30z" fill="#b6edfe"/><path d="m222.015 69h15v67.78h-15z" fill="#99bef3"/><path d="m409.495 50.027h-30c0-11.043-8.984-20.027-20.027-20.027h-87.663l24.55-30h63.112c27.586 0 50.028 22.442 50.028 50.027z" fill="#99bef3"/><path d="m147.305 125.34h149.43v90.37h-149.43z" fill="#fd4b49"/><path d="m222.015 125.34h74.72v90.37h-74.72z" fill="#e70b69"/><path d="m296.355 0-28.62 80.33h-91.42v-80.33z" fill="#fd4b49"/><path d="m296.355 0-28.62 80.33h-45.72v-80.33z" fill="#e70b69"/><path d="m427.005 125.78c0 17.95-14.56 32.51-32.51 32.51s-32.51-14.56-32.51-32.51 32.51-53 32.51-53 32.51 35.05 32.51 53z" fill="#eef7fe"/><path d="m427.005 125.78c0 17.95-14.56 32.51-32.51 32.51v-85.51s32.51 35.05 32.51 53z" fill="#c0defe"/><path d="m359.045 229.21v282.79h-274.05v-282.79c0-16.3 13.21-29.51 29.5-29.51h215.04c16.3 0 29.51 13.21 29.51 29.51z" fill="#eef7fe"/><path d="m359.045 229.21v282.79h-137.03v-312.3h107.52c16.3 0 29.51 13.21 29.51 29.51z" fill="#c0defe"/><path d="m265.685 340.685v30h-28.67v28.67h-30v-28.67h-28.66v-30h28.66v-28.67h30v28.67z" fill="#fd4b49"/><path d="m265.685 340.685v30h-28.67v28.67h-15v-87.34h15v28.67z" fill="#e70b69"/><g><path d="m307.765 298.475-24.92 16.71c-13.64-20.35-36.38-32.5-60.83-32.5-24.44 0-47.18 12.15-60.82 32.5l-24.92-16.71c19.22-28.67 51.27-45.79 85.74-45.79 34.48 0 66.53 17.12 85.75 45.79z" fill="#b6edfe"/><path d="m307.765 413.225c-19.22 28.67-51.27 45.79-85.75 45.79-34.47 0-66.52-17.12-85.74-45.79l24.92-16.7c13.64 20.35 36.38 32.49 60.82 32.49 24.45 0 47.19-12.14 60.83-32.49z" fill="#b6edfe"/><g fill="#99bef3"><path d="m282.845 396.525 24.92 16.7c-19.22 28.67-51.27 45.79-85.75 45.79v-30c24.45 0 47.19-12.14 60.83-32.49z"/><path d="m222.015 282.685v-30c34.48 0 66.53 17.12 85.75 45.79l-24.92 16.71c-13.64-20.35-36.38-32.5-60.83-32.5z"/></g></g></g></svg>