<svg height="682pt" viewBox="-83 -21 682 682.66669" width="682pt" xmlns="http://www.w3.org/2000/svg"><path d="m96.523438 573.433594-57.851563-29.804688c-10.417969-5.625-23.421875-1.972656-29.390625 8.25l-10.109375 17.320313c-6.597656 11.292969-1.921875 25.808593 10.027344 31.132812l58.449219 23.160157c8.722656 3.886718 18.957031 1.683593 25.316406-5.445313l9.515625-10.667969c9.445312-10.585937 6.523437-27.214844-5.957031-33.945312zm0 0"/><path d="m440.792969 260.6875c.546875-6.316406 6.257812-10.875 12.539062-10.023438l23.425781 3.21875c5.625.78125 10.917969-2.828124 12.261719-8.339843l21.464844-87.75c3.386719-13.878907-.921875-28.519531-11.292969-38.34375l-28.425781-26.90625c-12.015625-11.367188-29.28125-15.300781-45.03125-10.253907-49.285156 15.765626-26.539063 11.203126-94.460937 18.292969-21.453126 2.234375-38.269532 19.433594-40.019532 40.925781l-1.828125 22.457032c-1.070312 13.027344 3.304688 25.765625 11.554688 35.910156 7.382812 9.101562 11.421875 20.46875 11.421875 32.195312-.019532 47.144532 9.3125 29.222657-52.164063 77.421876-5.753906 4.515624-13.226562 6.175781-20.339843 4.546874l-12.144532-2.8125c-12.304687-2.828124-20.355468-14.644531-18.480468-27.132812 1.070312-7.085938 2.191406-14.558594 3.046874-20.230469.804688-5.421875 5.449219-9.417969 10.917969-9.433593 10.785157-.03125 15.945313 1.007812 20.007813-4.660157l4.84375-6.78125c2.859375-3.980469 2.746094-9.375-.273438-13.257812-25.109375-30.066407-25.726562-34.382813-52.316406-40.191407-12.277344-1.84375-23.847656 6.289063-26.226562 18.484376-14.035157 71.515624-16.792969 102.585937-54.28125 161.78125-10.738282 16.9375-7.257813 39.183593 8.105468 52.066406l18.722656 15.691406c11.539063 9.667969 12.675782 26.691406 1.902344 37.207031-7.488281 7.308594-18.535156 9.089844-27.800781 4.832031l-33.207031-15.273437c-12.800782-5.894531-27.070313-.335937-33.328125 10.832031-6.671875 11.902344-2.964844 28.179688 10.335937 35.3125l47.75 25.664063c15.257813 8.207031 33.621094 8.292969 48.957032.214843l38.117187-20.054687c10.828125-5.695313 23.972656-4.714844 33.835937 2.539063l51.808594 33.816406c11.839844 7.734375 17.132813 22.363281 12.964844 35.878906-7.871094 25.691406 11.335938 51.46875 38.015625 51.46875 22.171875 0 39.769531-18.046875 39.769531-39.683594 0-2.886718.125-1.019531-4.109375-40.019531l17.292969-23.816406c7.734375-10.628907 8.445312-24.839844 1.824219-36.191407l-23.027344-39.453124c-5.957031-11.6875.765625-25.835938 13.585937-28.609376l52.886719-11.398437c11.339844-1.277344 18.246094-13.125 13.773438-23.625l-5.410157-12.753906c-1.742187-4.082031-.878906-8.800781 2.195313-12.003907l47.058594-48.960937c5.539062-5.753906 3.34375-15.277344-4.125-18.058594l-36.640625-13.605469c-4.679688-1.742187-7.601563-6.375-7.171875-11.335937zm0 0"/><path d="m191.425781 143.613281c8.730469 6.15625 20.796875 4.074219 26.953125-4.648437l17.316406-24.527344c6.15625-8.726562 4.074219-20.789062-4.648437-26.953125-8.726563-6.15625-20.796875-4.078125-26.953125 4.648437l-17.316406 24.523438c-6.15625 8.726562-4.078125 20.796875 4.648437 26.957031zm0 0"/><path d="m274.703125 67.210938 25.964844-12.984376c9.558593-4.777343 13.429687-16.394531 8.648437-25.945312-4.773437-9.554688-16.390625-13.429688-25.945312-8.652344l-25.96875 12.984375c-9.550782 4.773438-13.425782 16.390625-8.648438 25.945313 4.777344 9.558594 16.398438 13.429687 25.949219 8.652344zm0 0"/><path d="m369.40625 38.679688h37.289062c10.683594 0 19.339844-8.65625 19.339844-19.339844s-8.65625-19.339844-19.335937-19.339844h-37.292969c-10.679688 0-19.335938 8.65625-19.335938 19.339844s8.65625 19.339844 19.335938 19.339844zm0 0"/></svg>