<svg height="512pt" viewBox="0 -54 512 512" width="512pt" xmlns="http://www.w3.org/2000/svg"><path d="m10 58h246v48h-246zm0 0" fill="#fff"/><path d="m204.960938 352h-143.921876l-32.066406-246h208.054688zm0 0" fill="#91def5"/><path d="m219.585938 10h-173.171876l-16.074218 48h205.320312zm0 0" fill="#b0e7f8"/><path d="m256 58h246v48h-246zm0 0" fill="#fff"/><path d="m450.960938 352h-143.921876l-32.066406-246h208.054688zm0 0" fill="#91def5"/><path d="m465.585938 10h-173.171876l-16.074218 48h205.320312zm0 0" fill="#b0e7f8"/><path d="m488.882812 305h-465.765624c-6.257813 0-10.519532 6.347656-8.148438 12.140625l31.445312 76.859375h173.171876l36.414062-36.457031 36.414062 36.457031h173.171876l31.445312-76.859375c2.371094-5.792969-1.890625-12.140625-8.148438-12.140625zm0 0" fill="#ffcb7c"/><path d="m163.671875 136c-2.632813 0-5.210937 1.070312-7.082031 2.929688-1.859375 1.859374-2.917969 4.441406-2.917969 7.070312s1.058594 5.210938 2.917969 7.070312c1.871094 1.859376 4.449218 2.929688 7.082031 2.929688 2.628906 0 5.207031-1.070312 7.066406-2.929688 1.863281-1.859374 2.933594-4.441406 2.933594-7.070312s-1.070313-5.210938-2.933594-7.070312c-1.859375-1.859376-4.4375-2.929688-7.066406-2.929688zm0 0"/><path d="m502 48h-13.140625l-13.792969-41.175781c-1.367187-4.078125-5.183594-6.824219-9.480468-6.824219h-173.171876c-4.296874 0-8.117187 2.746094-9.480468 6.824219l-13.792969 41.175781h-26.28125l-13.792969-41.175781c-1.367187-4.078125-5.183594-6.824219-9.480468-6.824219h-173.171876c-4.296874 0-8.117187 2.746094-9.480468 6.824219l-13.792969 41.175781h-13.140625c-5.523438 0-10 4.476562-10 10v48c0 5.523438 4.476562 10 10 10h10.191406l23.335938 179h-20.410156c-6.277344 0-12.113282 3.113281-15.613282 8.324219-3.5 5.210937-4.167968 11.792969-1.792968 17.601562l31.449218 76.859375c1.539063 3.761719 5.195313 6.214844 9.253906 6.214844h173.171876c2.652343 0 5.199218-1.054688 7.074218-2.933594l29.339844-29.371094 29.339844 29.371094c1.875 1.878906 4.421875 2.933594 7.074218 2.933594h46.585938c5.523438 0 10-4.476562 10-10s-4.476562-10-10-10h-42.4375l-33.488281-33.523438c-1.875-1.878906-4.417969-2.933593-7.074219-2.933593-2.652344 0-5.199219 1.054687-7.074219 2.933593l-33.488281 33.523438h-162.308594l-28.234375-69h462.210938l-28.234375 69h-39.871094c-5.523438 0-10 4.476562-10 10s4.476562 10 10 10h46.585938c4.058593 0 7.71875-2.453125 9.253906-6.214844l31.445312-76.859375c2.378906-5.808593 1.710938-12.390625-1.789062-17.601562-3.5-5.210938-9.335938-8.324219-15.613282-8.324219h-20.410156l23.335938-179h10.191406c5.523438 0 10-4.476562 10-10v-48c0-5.523438-4.476562-10-10-10zm-10 48h-226v-28h226zm-236 20h10.191406l23.335938 179h-67.054688l23.335938-179zm43.613281-96h158.773438l9.378906 28h-177.53125zm-246 0h158.773438l9.378906 28h-177.53125zm-33.613281 48h226v28h-226zm43.695312 227-18.121093-139h78.09375c5.523437 0 10-4.476562 10-10s-4.476563-10-10-10h-80.699219l-2.609375-20h185.28125l-23.335937 179zm384.609376 0h-138.609376l-23.335937-179h185.28125zm0 0"/><path d="m379 384c-2.628906 0-5.210938 1.070312-7.070312 2.929688-1.859376 1.859374-2.929688 4.441406-2.929688 7.070312s1.070312 5.210938 2.929688 7.070312c1.859374 1.859376 4.441406 2.929688 7.070312 2.929688s5.210938-1.070312 7.070312-2.929688c1.859376-1.859374 2.929688-4.441406 2.929688-7.070312s-1.070312-5.210938-2.929688-7.070312c-1.859374-1.859376-4.441406-2.929688-7.070312-2.929688zm0 0"/></svg>