<svg height="512pt" viewBox="-20 0 512 512.001" width="512pt" xmlns="http://www.w3.org/2000/svg"><path d="m218.980469 150.726562c-4.140625 0-7.5 3.359376-7.5 7.5v12.453126c0 4.140624 3.359375 7.496093 7.5 7.496093 4.144531 0 7.5-3.355469 7.5-7.496093v-12.453126c0-4.140624-3.355469-7.5-7.5-7.5zm0 0"/><path d="m57.679688 150.726562c-4.144532 0-7.5 3.359376-7.5 7.5v12.453126c0 4.140624 3.355468 7.496093 7.5 7.496093 4.140624 0 7.5-3.355469 7.5-7.496093v-12.453126c0-4.140624-3.359376-7.5-7.5-7.5zm0 0"/><path d="m156.648438 164.753906c-10.785157 8.367188-25.851563 8.367188-36.636719 0-3.273438-2.539062-7.984375-1.941406-10.523438 1.332032-2.539062 3.273437-1.941406 7.984374 1.332031 10.523437 8.097657 6.28125 17.804688 9.421875 27.511719 9.421875 9.703125 0 19.410157-3.140625 27.511719-9.421875 3.273438-2.539063 3.867188-7.25 1.328125-10.523437-2.539063-3.273438-7.25-3.871094-10.523437-1.332032zm0 0"/><path d="m461.027344 95.640625c-1.175782-3.972656-5.347656-6.238281-9.320313-5.0625-3.972656 1.175781-6.238281 5.347656-5.0625 9.316406 6.324219 21.398438 9.535157 44.4375 9.535157 68.484375 0 41.625-9.734376 80.644532-27.40625 109.878906-16.957032 28.050782-39.101563 43.5-62.351563 43.5-23.253906 0-45.398437-15.449218-62.355469-43.5-17.671875-29.230468-27.40625-68.253906-27.40625-109.878906s9.734375-80.648437 27.40625-109.878906c16.957032-28.050781 39.101563-43.5 62.351563-43.5 26.832031 0 52.132812 20.625 69.414062 56.589844 1.796875 3.734375 6.277344 5.304687 10.011719 3.511718 3.730469-1.792968 5.304688-6.277343 3.507812-10.007812-19.878906-41.367188-50.109374-65.09375-82.933593-65.09375h-261.660157c-28.707031 0-55.410156 18.019531-75.1875 50.738281-19.070312 31.542969-29.570312 73.320313-29.570312 117.640625 0 44.320313 10.5 86.097656 29.570312 117.636719 19.777344 32.722656 46.480469 50.742187 75.1875 50.742187h261.660157c28.707031 0 55.410156-18.019531 75.191406-50.742187 5.617187-9.292969 10.488281-19.484375 14.570313-30.359375v225.726562c0 3.980469-1.964844 7.429688-5.386719 9.460938s-7.390625 2.105469-10.886719.203125l-43.070312-23.484375c-2.238282-1.21875-4.941407-1.21875-7.179688 0l-42.597656 23.222656c-15.183594 8.277344-33.308594 8.277344-48.488282 0l-42.589843-23.222656c-2.238281-1.21875-4.945313-1.21875-7.179688 0l-43.066406 23.480469c-3.492187 1.90625-7.460937 1.832031-10.882813-.199219-3.425781-2.03125-5.386718-5.480469-5.386718-9.460938v-119.695312c0-4.144531-3.359375-7.5-7.5-7.5-4.144532 0-7.5 3.355469-7.5 7.5v119.695312c0 9.269532 4.757812 17.625 12.726562 22.359376 7.96875 4.730468 17.585938 4.90625 25.722656.472656l39.476563-21.523438 39 21.265625c9.839844 5.363281 20.628906 8.046875 31.421875 8.042969 10.792969 0 21.585938-2.679688 31.425781-8.042969l39.007813-21.265625 39.484375 21.523438c8.136719 4.4375 17.75 4.261718 25.722656-.472656 7.96875-4.730469 12.726563-13.089844 12.726563-22.355469v-313.007813c0-25.488281-3.417969-49.957031-10.152344-72.738281zm-356.269532 226.117187c-23.25 0-45.394531-15.449218-62.351562-43.5-17.675781-29.230468-27.40625-68.253906-27.40625-109.878906s9.730469-80.648437 27.40625-109.878906c16.957031-28.050781 39.101562-43.5 62.351562-43.5h218.023438c-11.679688 8.519531-22.363281 20.542969-31.550781 35.738281-19.066407 31.539063-29.570313 73.320313-29.570313 117.640625 0 44.320313 10.503906 86.097656 29.570313 117.636719 9.1875 15.199219 19.871093 27.21875 31.550781 35.742187zm0 0"/><path d="m322.488281 168.378906c0 50.554688 18.886719 88.675782 43.929688 88.675782 25.046875 0 43.929687-38.121094 43.929687-88.675782 0-50.550781-18.882812-88.671875-43.929687-88.671875-25.042969 0-43.929688 38.121094-43.929688 88.671875zm62.847657-54.328125c6.457031 14.386719 10.015624 33.683594 10.015624 54.328125 0 20.648438-3.558593 39.941406-10.015624 54.328125-5.433594 12.117188-12.507813 19.347657-18.917969 19.347657-6.40625 0-13.480469-7.230469-18.914063-19.347657-6.457031-14.386719-10.015625-33.679687-10.015625-54.328125 0-20.644531 3.558594-39.941406 10.015625-54.328125 5.433594-12.113281 12.507813-19.347656 18.914063-19.347656 6.410156 0 13.480469 7.234375 18.917969 19.347656zm0 0"/></svg>