<?xml version="1.0"?>
<svg xmlns="http://www.w3.org/2000/svg" id="Outline" viewBox="0 0 512 512" width="512" height="512"><path d="M107.938,64.216l2.494-2.123a8,8,0,0,0-10.37-12.186l-2.5,2.124a25.625,25.625,0,0,0,0,39.939l2.5,2.122a10.093,10.093,0,0,1,3.917,8.379c-.224,3.269-2.18,6.239-5.506,8.362l-3.8,2.424a8,8,0,1,0,8.611,13.486l3.8-2.424c7.6-4.851,12.287-12.416,12.858-20.753a26.044,26.044,0,0,0-9.509-21.659l-2.494-2.122a9.663,9.663,0,0,1,0-15.569Z"/><path d="M315.938,64.216l2.494-2.123a8,8,0,0,0-10.37-12.186l-2.5,2.124a25.625,25.625,0,0,0,0,39.939l2.5,2.122a10.093,10.093,0,0,1,3.917,8.379c-.224,3.269-2.18,6.239-5.506,8.362l-3.8,2.424a8,8,0,1,0,8.611,13.486l3.8-2.424c7.6-4.851,12.287-12.416,12.858-20.753a26.044,26.044,0,0,0-9.509-21.659l-2.494-2.122a9.663,9.663,0,0,1,0-15.569Z"/><path d="M211.938,32.216l2.494-2.123a8,8,0,0,0-10.37-12.186l-2.5,2.124a25.625,25.625,0,0,0,0,39.939l2.5,2.122a10.093,10.093,0,0,1,3.917,8.379c-.224,3.269-2.18,6.239-5.506,8.362l-3.8,2.424a8,8,0,1,0,8.611,13.486l3.8-2.424c7.6-4.851,12.287-12.416,12.858-20.753a26.044,26.044,0,0,0-9.509-21.659l-2.494-2.122A10.3,10.3,0,0,1,208,40,10.293,10.293,0,0,1,211.938,32.216Z"/><circle cx="192" cy="272" r="8"/><circle cx="112" cy="224" r="8"/><circle cx="304" cy="224" r="8"/><circle cx="224" cy="160" r="8"/><circle cx="240" cy="232" r="8"/><circle cx="176" cy="200" r="8"/><path d="M469.657,354.343l-.142-.139-56.5-53.758A40,40,0,0,0,352.218,352H297.224l9.155-64.06A63.993,63.993,0,1,0,286.22,162.5C278.486,133.468,246.339,112,208,112s-70.487,21.468-78.221,50.5A64,64,0,1,0,109.621,287.94L118.776,352H24a8,8,0,0,0-7.589,10.53l16,48A8,8,0,0,0,40,416H245.414A55.982,55.982,0,0,0,296,496H488a8,8,0,0,0,8-8V384a8,8,0,0,0-2.343-5.657ZM256.591,352l3.371-47.239a67.531,67.531,0,0,0,20.366-21.3,64.087,64.087,0,0,0,10.092,3.062L281.062,352Zm-81.142,0L172.7,313.488a95.721,95.721,0,0,0,27.3,6.189V352ZM216,319.677a95.721,95.721,0,0,0,27.3-6.189L240.551,352H216ZM64,224a48.054,48.054,0,0,1,48-48,47.552,47.552,0,0,1,20.638,4.654A8,8,0,0,0,144.07,173.9c.7-12.012,7.41-23.348,18.9-31.918C175.064,132.965,191.055,128,208,128s32.936,4.965,45.026,13.979c11.494,8.57,18.207,19.906,18.9,31.919a8,8,0,0,0,11.432,6.756A47.552,47.552,0,0,1,304,176,48,48,0,1,1,280.579,265.9a8,8,0,0,0-11.325,3.969C261.1,289.963,235.909,304,208,304s-53.1-14.037-61.254-34.135a8,8,0,0,0-11.325-3.97A48,48,0,0,1,64,224Zm61.58,62.522a64.087,64.087,0,0,0,10.092-3.062,67.521,67.521,0,0,0,20.366,21.3L159.409,352H134.938ZM35.1,368H367.431l16,16H296a55.8,55.8,0,0,0-39.138,16H45.766ZM480,480H296a40,40,0,0,1,0-80H402.745a8,8,0,0,0,5.657-13.657l-40.569-40.569a24,24,0,0,1,33.941-33.941c.047.048.1.094.143.14l56.5,53.755L480,387.313Z"/></svg>
