<svg id="Filled" height="512" viewBox="0 0 512 512" width="512" xmlns="http://www.w3.org/2000/svg"><path d="m64 56h384v96h-384z" fill="#d0d2d4"/><path d="m64 152h384v304h-384z" fill="#e9eef2"/><path d="m96 456h48v32h-48z" fill="#7e8589"/><path d="m368 456h48v32h-48z" fill="#7e8589"/><path d="m120 184h272v208h-272z" fill="#7e8589"/><path d="m96 360h320v32h-320z" fill="#d0d2d4"/><path d="m208 392h96v32h-96z" fill="#dadcde"/><path d="m200 280h112a16 16 0 0 1 16 16v32a0 0 0 0 1 0 0h-144a0 0 0 0 1 0 0v-32a16 16 0 0 1 16-16z" fill="#ad6643"/><g fill="#e9eef2"><path d="m168 328h176v32h-176z"/><circle cx="112" cy="104" r="16"/><circle cx="192" cy="104" r="16"/><circle cx="320" cy="104" r="16"/><circle cx="400" cy="104" r="16"/></g><path d="m112 128a24 24 0 1 0 -24-24 24.028 24.028 0 0 0 24 24zm0-32a8 8 0 1 1 -8 8 8.009 8.009 0 0 1 8-8z"/><path d="m192 128a24 24 0 1 0 -24-24 24.028 24.028 0 0 0 24 24zm0-32a8 8 0 1 1 -8 8 8.009 8.009 0 0 1 8-8z"/><path d="m320 128a24 24 0 1 0 -24-24 24.028 24.028 0 0 0 24 24zm0-32a8 8 0 1 1 -8 8 8.009 8.009 0 0 1 8-8z"/><path d="m400 128a24 24 0 1 0 -24-24 24.028 24.028 0 0 0 24 24zm0-32a8 8 0 1 1 -8 8 8.009 8.009 0 0 1 8-8z"/><path d="m448 48h-24v-24a8 8 0 0 0 -8-8h-32a8 8 0 0 0 0 16h24v16h-80v-16h24a8 8 0 0 0 0-16h-32a8 8 0 0 0 -8 8v24h-112v-24a8 8 0 0 0 -8-8h-32a8 8 0 0 0 0 16h24v16h-80v-16h24a8 8 0 0 0 0-16h-32a8 8 0 0 0 -8 8v24h-24a8 8 0 0 0 -8 8v400a8 8 0 0 0 8 8h24v24a8 8 0 0 0 8 8h48a8 8 0 0 0 8-8v-24h208v24a8 8 0 0 0 8 8h48a8 8 0 0 0 8-8v-24h24a8 8 0 0 0 8-8v-400a8 8 0 0 0 -8-8zm-8 16v80h-368v-80zm-304 416h-32v-16h32zm272 0h-32v-16h32zm-336-32v-288h368v288z"/><path d="m416 352h-16v-168a8 8 0 0 0 -8-8h-272a8 8 0 0 0 -8 8v168h-16a8 8 0 0 0 -8 8v32a8 8 0 0 0 8 8h104v24a8 8 0 0 0 8 8h96a8 8 0 0 0 8-8v-24h104a8 8 0 0 0 8-8v-32a8 8 0 0 0 -8-8zm-288-160h256v160h-32v-24a8 8 0 0 0 -8-8h-8v-24a24.028 24.028 0 0 0 -24-24h-112a24.028 24.028 0 0 0 -24 24v24h-8a8 8 0 0 0 -8 8v24h-32zm192 128h-128v-24a8.009 8.009 0 0 1 8-8h112a8.009 8.009 0 0 1 8 8zm16 16v16h-160v-16zm-40 80h-80v-16h80zm112-32h-304v-16h304z"/><path d="m200 200a24.028 24.028 0 0 0 24 24h64a8 8 0 0 1 0 16h-16a24.028 24.028 0 0 0 -24 24 8 8 0 0 0 16 0 8.009 8.009 0 0 1 8-8h16a24 24 0 0 0 0-48h-64a8.009 8.009 0 0 1 -8-8 8 8 0 0 0 -16 0z"/></svg>