<svg id="Capa_1" enable-background="new 0 0 512 512" height="512" viewBox="0 0 512 512" width="512" xmlns="http://www.w3.org/2000/svg"><g><g><path d="m184.428 153.733c-24.693 0-44.782-20.089-44.782-44.782v-1.117c0-24.693 20.089-44.782 44.782-44.782h71.572l23.331-33.052-23.331-30h-256v386.826l256 39.462 23.331-151.142-23.331-121.413z" fill="#5ec26e"/><path d="m256 0v63.051h71.572c24.693 0 44.782 20.089 44.782 44.782v1.117c0 24.693-20.089 44.782-44.782 44.782h-71.572v272.555l256-39.462v-386.825z" fill="#17a56d"/></g><g><g><g><path d="m146.011 222.041h54.518v30h-54.518z" fill="#5a364b" transform="matrix(.385 -.923 .923 .385 -112.195 305.746)"/></g><g><path d="m228.497 311.697-21.298-67.315h-149.97l-21.317 67.301.026.23 105.206 16.217 87.328-16.217z" fill="#704e56"/></g><path d="m35.938 311.913 8.746 74.913 92.522 31.283 82.527-31.283 8.739-74.913z" fill="#f0f7ff"/></g><g><g><path d="m393.602 222.041h54.518v30h-54.518z" fill="#47233a" transform="matrix(.385 -.923 .923 .385 40.115 534.269)"/></g><g><path d="m476.088 311.697-21.297-67.315h-149.971l-21.317 67.301.027.23 105.206 16.217 87.327-16.217z" fill="#5a364b"/></g><path d="m283.53 311.913 8.745 74.913 92.522 31.283 82.528-31.283 8.738-74.913z" fill="#dfe7f4"/></g></g><g><path d="m0 386.826v125.174h256l28.715-62.587-28.715-62.587z" fill="#8fd771"/><path d="m256 386.826h256v125.174h-256z" fill="#5ec26e"/></g></g></svg>