<svg id="Capa_1" enable-background="new 0 0 512 512" height="512" viewBox="0 0 512 512" width="512" xmlns="http://www.w3.org/2000/svg"><g><path d="m184.428 153.733h143.145c24.693 0 44.782-20.089 44.782-44.782v-1.117c0-24.693-20.089-44.782-44.782-44.782h-143.145c-24.693 0-44.782 20.089-44.782 44.782v1.117c0 24.693 20.088 44.782 44.782 44.782zm-14.782-45.9c0-8.151 6.631-14.782 14.782-14.782h143.145c8.151 0 14.782 6.631 14.782 14.782v1.117c0 8.151-6.631 14.782-14.782 14.782h-143.145c-8.151 0-14.782-6.631-14.782-14.782z"/><path d="m0 0v512h512v-512zm482 30v340.086h-34.863l6.811-58.39-21.298-67.315h-41.204l11.144-26.729-27.69-11.544-15.957 38.273h-67.263l-21.317 67.301 6.818 58.404h-43.356l6.811-58.39-21.298-67.315h-41.012l11.144-26.729-27.689-11.545-15.957 38.273h-66.456l-21.317 67.301 6.818 58.404h-34.869v-340.085zm-71.324 244.382 7.514 23.748h-112.065l7.522-23.748zm-103.292 95.704-4.897-41.957h119.341l-4.895 41.957zm-110.021-95.704 7.514 23.748h-111.064l7.522-23.748zm-102.291 95.704-4.897-41.957h118.341l-4.895 41.957zm-65.072 111.914v-81.914h452v81.914z"/></g></svg>