<svg id="Capa_1" enable-background="new 0 0 512.003 512.003" height="512" viewBox="0 0 512.003 512.003" width="512" xmlns="http://www.w3.org/2000/svg"><g id="XMLID_1246_"><circle id="XMLID_2181_" cx="446.001" cy="88.929" fill="#ff9171" r="36"/><circle id="XMLID_2178_" cx="466.403" cy="205.388" fill="#d5ea79" r="20"/><path id="XMLID_2177_" d="m67.069 177.954c-18.881 47.428-28.58 98.011-28.58 149.059v132.258c0 23.6 19.132 42.732 42.732 42.732h73.58-30.848 85.463c23.6 0 42.732-19.132 42.732-42.732v-115.719c0-29.291-18.566-55.362-46.246-64.941-27.68-9.579-46.247-35.651-46.247-64.941v-35.715h-92.586z" fill="#98eaf9"/><path id="XMLID_2176_" d="m67.069 135.222h92.585v42.435h-92.585z" fill="#e2e9ee"/><path id="XMLID_2175_" d="m242.652 64.003h-161.357c-39.374 0-71.294 31.919-71.294 71.294v13.466c13.251-8.829 28.817-13.54 44.74-13.54h104.913l24.389-21.366h58.608c5.245 0 9.496-4.252 9.496-9.496v-30.862c.001-5.245-4.251-9.496-9.495-9.496z" fill="#fff"/><path id="XMLID_2174_" d="m159.655 135.112c3.246 33.856 30.273 60.764 64.18 63.834-13.164-12.887-21.337-30.852-21.337-50.73v-29.185l-18.454-5.175z" fill="#e2e9ee"/><path id="XMLID_2489_" d="m242.652 64.003h-34.274v49.854h34.274c5.244 0 9.496-4.251 9.496-9.496v-30.863c0-5.244-4.252-9.495-9.496-9.495z" fill="#e2e9ee"/><g id="XMLID_1576_"><path id="XMLID_1574_" d="m201.318 362.978h-34v-34h-44v34h-34v44h34v34h44v-34h34z" fill="#d5ea79"/><g id="XMLID_92_"><path id="XMLID_505_" d="m337.735 38.483c1.434 0 2.891-.31 4.273-.964l39.023-18.477c4.992-2.364 7.122-8.326 4.759-13.317-2.363-4.992-8.327-7.123-13.317-4.759l-39.023 18.478c-4.992 2.364-7.122 8.326-4.759 13.317 1.708 3.608 5.299 5.722 9.044 5.722z"/><path id="XMLID_534_" d="m381.031 158.818-27.442-12.994c-4.988-2.361-10.953-.232-13.317 4.759-2.363 4.992-.233 10.954 4.759 13.317l27.442 12.994c1.382.654 2.838.964 4.272.964 3.745 0 7.336-2.114 9.045-5.723 2.363-4.991.232-10.954-4.759-13.317z"/><path id="XMLID_951_" d="m316.323 128.179-54.175-25.652v-27.195l30.864-14.615c4.992-2.364 7.122-8.326 4.759-13.318-2.363-4.991-8.327-7.123-13.317-4.758l-30.964 14.662c-3.102-2.082-6.829-3.3-10.837-3.3h-161.358c-44.825 0-81.294 36.468-81.294 81.294v13.466c0 3.688 2.029 7.076 5.28 8.816 1.478.792 3.101 1.184 4.719 1.184 1.94 0 3.873-.564 5.546-1.678 11.647-7.76 25.2-11.862 39.195-11.862h2.328v30.863c-14.861 37.848-24.044 77.575-27.275 118.121-.438 5.505 3.669 10.324 9.175 10.763.271.022.538.032.805.032 5.162 0 9.541-3.971 9.958-9.206 2.952-37.063 11.129-73.408 24.303-108.138h75.62v26.012c0 33.531 21.289 63.426 52.976 74.392 23.637 8.18 39.518 30.48 39.518 55.492v115.718c0 18.048-14.684 32.732-32.731 32.732h-128.197c-18.048 0-32.731-14.684-32.731-32.732v-74.292c0-5.523-4.478-10-10-10s-10 4.477-10 10v74.292c0 29.077 23.655 52.732 52.731 52.732h128.195c29.076 0 52.732-23.655 52.732-52.732v-115.72c0-33.531-21.29-63.426-52.977-74.392-23.636-8.179-39.517-30.48-39.517-55.491v-31.756c13.303 15.029 32.099 25.075 53.279 26.993.303.027.605.041.905.041 3.87 0 7.431-2.245 9.075-5.809 1.772-3.84.939-8.379-2.084-11.337-11.822-11.572-18.333-27.051-18.333-43.583v-24.361h30.154c4.008 0 7.736-1.218 10.838-3.3l54.275 25.699c1.382.654 2.839.964 4.273.964 3.745 0 7.336-2.114 9.045-5.723 2.364-4.992.234-10.954-4.758-13.318zm-296.239 3.916c1.669-32.317 28.486-58.093 61.211-58.093h117.082v29.854h-14.333c-2.424 0-4.766.881-6.59 2.478l-21.561 18.888h-101.151c-11.993 0-23.732 2.348-34.658 6.873zm129.571 13.127v22.435h-72.585v-22.435zm20.67-6.053 17.48-15.313h4.692v24.361c0 11.411 2.335 22.443 6.781 32.565-14.947-8.837-25.755-23.88-28.953-41.613zm71.823-35.313h-23.77v-29.853h23.77z"/><path id="XMLID_1217_" d="m502.001 78.929h-11.108c-1.177-5.285-3.264-10.228-6.09-14.66l7.867-7.868c3.905-3.905 3.905-10.237 0-14.142-3.906-3.905-10.238-3.905-14.143 0l-7.867 7.867c-4.432-2.826-9.374-4.914-14.66-6.091v-11.106c0-5.523-4.478-10-10-10s-10 4.477-10 10v11.108c-5.285 1.177-10.228 3.264-14.659 6.091l-7.867-7.867c-3.904-3.905-10.234-3.905-14.142 0-3.905 3.905-3.905 10.237 0 14.142l7.867 7.868c-2.826 4.432-4.914 9.374-6.091 14.66h-11.108c-5.522 0-10 4.477-10 10s4.478 10 10 10h11.108c1.177 5.285 3.264 10.228 6.091 14.659l-7.867 7.867c-3.905 3.905-3.905 10.237 0 14.143 1.953 1.953 4.512 2.929 7.071 2.929 2.56 0 5.118-.976 7.071-2.929l7.867-7.867c4.431 2.826 9.374 4.914 14.659 6.09v11.108c0 5.523 4.478 10 10 10s10-4.477 10-10v-11.108c5.285-1.177 10.228-3.264 14.659-6.091l7.867 7.867c1.953 1.953 4.512 2.929 7.071 2.929s5.118-.977 7.071-2.929c3.905-3.905 3.905-10.237 0-14.142l-7.867-7.868c2.826-4.432 4.914-9.374 6.091-14.66h11.108c5.522 0 10-4.477 10-10 .001-5.523-4.476-10-9.999-10zm-56 36c-14.337 0-26-11.664-26-26 0-14.337 11.663-26 26-26s26 11.663 26 26-11.663 26-26 26z"/><path id="XMLID_1221_" d="m466.404 175.387c-16.542 0-30 13.458-30 30s13.458 30 30 30 30-13.458 30-30-13.458-30-30-30zm0 40c-5.514 0-10-4.486-10-10s4.486-10 10-10 10 4.486 10 10c0 5.515-4.487 10-10 10z"/><path id="XMLID_1229_" d="m312.043 98.929h37.266c5.522 0 10-4.477 10-10s-4.478-10-10-10h-37.266c-5.522 0-10 4.477-10 10s4.478 10 10 10z"/><path id="XMLID_1274_" d="m38.492 349.983c2.63 0 5.21-1.07 7.069-2.93 1.86-1.86 2.931-4.44 2.931-7.07 0-2.64-1.07-5.21-2.931-7.08-1.859-1.86-4.439-2.93-7.069-2.93-2.631 0-5.21 1.07-7.07 2.93-1.86 1.87-2.93 4.44-2.93 7.08 0 2.63 1.069 5.21 2.93 7.07 1.86 1.859 4.439 2.93 7.07 2.93z"/><path id="XMLID_1341_" d="m167.319 318.978h-44c-5.522 0-10 4.477-10 10v24h-24c-5.522 0-10 4.477-10 10v44c0 5.523 4.478 10 10 10h24v24c0 5.523 4.478 10 10 10h44c5.522 0 10-4.477 10-10v-24h24c5.522 0 10-4.477 10-10v-44c0-5.523-4.478-10-10-10h-24v-24c0-5.523-4.478-10-10-10zm24 54v24h-24c-5.523 0-10 4.477-10 10v24h-24v-24c0-5.523-4.478-10-10-10h-24v-24h24c5.522 0 10-4.477 10-10v-24h24v24c0 5.523 4.477 10 10 10z"/></g></g></g></svg>